<svg version="1.0" xmlns="http://www.w3.org/2000/svg"
 width="25.000000pt" height="25.000000pt" viewBox="0 0 256.000000 256.000000"
 preserveAspectRatio="xMidYMid meet">
    <g transform="translate(0.000000,256.000000) scale(0.100000,-0.100000)"
fill="#000000" stroke="none">
<path d="M160 2320 l0 -80 167 -2 166 -3 113 -680 c102 -612 114 -693 114
-807 0 -119 -1 -127 -21 -133 -37 -12 -92 -69 -115 -120 -44 -94 -27 -183 51
-260 101 -101 229 -101 331 0 59 59 80 117 71 195 l-6 50 370 0 370 0 -7 -50
c-10 -78 11 -136 70 -195 102 -101 230 -101 332 0 59 59 80 117 70 195 l-7 50
86 0 85 0 0 80 0 80 -760 0 -760 0 0 80 0 80 574 0 c532 0 575 1 595 17 15 13
67 155 186 513 91 272 165 505 165 518 0 13 -11 34 -25 47 l-24 25 -820 0
c-772 0 -820 1 -825 18 -2 9 -19 107 -37 217 -28 168 -36 203 -56 222 -22 22
-27 23 -238 23 l-215 0 0 -80z m1916 -957 l-133 -398 -536 -3 -537 -2 -5 22
c-9 41 -125 747 -125 762 0 14 78 16 734 16 l734 0 -132 -397z m-1221 -908
c50 -49 15 -135 -55 -135 -41 0 -80 39 -80 80 0 41 39 80 80 80 19 0 40 -9 55
-25z m1200 0 c50 -49 15 -135 -55 -135 -41 0 -80 39 -80 80 0 41 39 80 80 80
19 0 40 -9 55 -25z"/>
</g>
</svg>